%TF.GenerationSoftware,KiCad,Pcbnew,8.0.6*%
%TF.CreationDate,2024-12-20T12:02:48+02:00*%
%TF.ProjectId,lec10Ch6Ex5,6c656331-3043-4683-9645-78352e6b6963,rev?*%
%TF.SameCoordinates,Original*%
%TF.FileFunction,Copper,L1,Top*%
%TF.FilePolarity,Positive*%
%FSLAX46Y46*%
G04 Gerber Fmt 4.6, Leading zero omitted, Abs format (unit mm)*
G04 Created by KiCad (PCBNEW 8.0.6) date 2024-12-20 12:02:48*
%MOMM*%
%LPD*%
G01*
G04 APERTURE LIST*
%TA.AperFunction,ComponentPad*%
%ADD10C,1.600000*%
%TD*%
%TA.AperFunction,ComponentPad*%
%ADD11O,1.600000X1.600000*%
%TD*%
%TA.AperFunction,ComponentPad*%
%ADD12R,3.000000X3.000000*%
%TD*%
%TA.AperFunction,ComponentPad*%
%ADD13C,3.000000*%
%TD*%
%TA.AperFunction,ComponentPad*%
%ADD14R,1.800000X1.800000*%
%TD*%
%TA.AperFunction,ComponentPad*%
%ADD15C,1.800000*%
%TD*%
%TA.AperFunction,ComponentPad*%
%ADD16C,2.000000*%
%TD*%
%TA.AperFunction,Conductor*%
%ADD17C,0.200000*%
%TD*%
G04 APERTURE END LIST*
D10*
%TO.P,R1,1*%
%TO.N,Net-(R1-Pad1)*%
X168000000Y-100080000D03*
D11*
%TO.P,R1,2*%
%TO.N,Net-(D1-A)*%
X168000000Y-89920000D03*
%TD*%
D12*
%TO.P,BT1,1,+*%
%TO.N,VCC*%
X159500001Y-121250000D03*
D13*
%TO.P,BT1,2,-*%
%TO.N,GND*%
X159500001Y-141740000D03*
%TD*%
D14*
%TO.P,D1,1,K*%
%TO.N,GND*%
X166960000Y-76000000D03*
D15*
%TO.P,D1,2,A*%
%TO.N,Net-(D1-A)*%
X169500000Y-76000000D03*
%TD*%
D14*
%TO.P,D2,1,K*%
%TO.N,GND*%
X153460000Y-76000000D03*
D15*
%TO.P,D2,2,A*%
%TO.N,Net-(D2-A)*%
X156000000Y-76000000D03*
%TD*%
D10*
%TO.P,R2,1*%
%TO.N,Net-(R2-Pad1)*%
X155000000Y-100080000D03*
D11*
%TO.P,R2,2*%
%TO.N,Net-(D2-A)*%
X155000000Y-89920000D03*
%TD*%
D16*
%TO.P,SW1,1,1*%
%TO.N,VCC*%
X169250000Y-112750000D03*
X162750000Y-112750000D03*
%TO.P,SW1,2,2*%
%TO.N,Net-(R1-Pad1)*%
X169250000Y-108250000D03*
X162750000Y-108250000D03*
%TD*%
%TO.P,SW2,1,1*%
%TO.N,VCC*%
X157000000Y-112750000D03*
X150500000Y-112750000D03*
%TO.P,SW2,2,2*%
%TO.N,Net-(R2-Pad1)*%
X157000000Y-108250000D03*
X150500000Y-108250000D03*
%TD*%
D17*
%TO.N,GND*%
X149200000Y-131439999D02*
X149200000Y-80260000D01*
X153460000Y-76000000D02*
X154660000Y-74800000D01*
X154660000Y-74800000D02*
X165760000Y-74800000D01*
X165760000Y-74800000D02*
X166960000Y-76000000D01*
X159500001Y-141740000D02*
X149200000Y-131439999D01*
X149200000Y-80260000D02*
X153460000Y-76000000D01*
%TO.N,VCC*%
X159500001Y-121250000D02*
X159500001Y-115250001D01*
X159500001Y-121250000D02*
X159500001Y-115999999D01*
X159500001Y-115999999D02*
X162750000Y-112750000D01*
X159500001Y-115250001D02*
X157000000Y-112750000D01*
X169250000Y-112750000D02*
X162750000Y-112750000D01*
X150500000Y-112750000D02*
X157000000Y-112750000D01*
%TO.N,Net-(D1-A)*%
X168000000Y-77500000D02*
X169500000Y-76000000D01*
X168000000Y-89920000D02*
X168000000Y-77500000D01*
%TO.N,Net-(D2-A)*%
X155000000Y-77000000D02*
X156000000Y-76000000D01*
X155000000Y-89920000D02*
X155000000Y-77000000D01*
%TO.N,Net-(R1-Pad1)*%
X168000000Y-107000000D02*
X169250000Y-108250000D01*
X168000000Y-100080000D02*
X168000000Y-107000000D01*
X162750000Y-108250000D02*
X169250000Y-108250000D01*
%TO.N,Net-(R2-Pad1)*%
X155000000Y-106250000D02*
X157000000Y-108250000D01*
X150500000Y-108250000D02*
X157000000Y-108250000D01*
X155000000Y-100080000D02*
X155000000Y-106250000D01*
%TD*%
M02*
